<?xml version="1.0" encoding="utf-8"?>
<!-- Generator: Adobe Illustrator 24.3.0, SVG Export Plug-In . SVG Version: 6.00 Build 0)  -->
<svg version="1.1" xmlns="http://www.w3.org/2000/svg" xmlns:xlink="http://www.w3.org/1999/xlink" x="0px" y="0px"
	 viewBox="0 0 500 500" style="enable-background:new 0 0 500 500;" xml:space="preserve">
<style type="text/css">
	.st0{fill:#FFFFFF;}
	.st1{fill:url(#SVGID_1_);}
	.st2{fill:#DA4D4E;}
	.st3{font-family:'FranklinGothic-HeavyItalic';}
	.st4{font-size:46.664px;}
	.st5{letter-spacing:4;}
</style>
<g id="BACKGROUND">
	<rect id="XMLID_223_" x="-1.5" y="1.5" class="st0" width="500" height="500"/>
</g>
<g id="OBJECTS">
	<g>
		<g>
			<rect class="st0" width="500" height="500"/>
		</g>
		<g>
			<g>
				<linearGradient id="SVGID_1_" gradientUnits="userSpaceOnUse" x1="216.3851" y1="211.9409" x2="283.553" y2="211.9409">
					<stop  offset="0" style="stop-color:#F37F7B"/>
					<stop  offset="0.5" style="stop-color:#ED3D57"/>
					<stop  offset="1" style="stop-color:#DD1E47"/>
				</linearGradient>
				<path class="st1" d="M255.34,193.64l-4.06,7.03c-0.41,0.71-1.17,1.15-1.99,1.15h-27.76c-0.82,0-1.58,0.44-1.99,1.15l-2.86,4.95
					c-0.41,0.71-0.41,1.58,0,2.29l2.86,4.95c0.41,0.71,1.17,1.15,1.99,1.15h27.76c0.82,0,1.57,0.44,1.98,1.14l14.73,25.44
					c0.41,0.71,1.17,1.14,1.98,1.14h5.72c0.82,0,1.58-0.44,1.99-1.15l2.86-4.95c0.41-0.71,0.41-1.59,0-2.29l-14.73-25.44
					c-0.41-0.71-0.41-1.58,0-2.29l4.31-7.47c0.88-1.53,3.09-1.53,3.97,0l3.83,6.63c0.88,1.53,3.09,1.53,3.97,0l3.34-5.78
					c0.41-0.71,0.41-1.58,0-2.29l-5.08-8.8l-1.39-2.41c-0.41-0.71-0.41-1.58,0-2.29l1.28-2.22c0.88-1.53-0.22-3.44-1.99-3.44h-12.76
					h-3.09h-25.99c-0.82,0-1.58,0.44-1.99,1.15l-3.34,5.78c-0.88,1.53,0.22,3.44,1.99,3.44h22.46
					C255.12,190.2,256.22,192.11,255.34,193.64z"/>
				<path class="st2" d="M302.34,165.52c-6.92-12-19.72-19.4-33.57-19.4h-24.79h-21.73c-2.34,0-4.51,1.25-5.68,3.28l-21.69,37.56
					l-10.53,18.23c-1.38,2.39-1.38,5.34,0,7.73l4.6,7.97c0.88,1.53,2.47,2.53,4.23,2.66l13.5,1.02c0.97,0.07,1.1,1.44,0.17,1.7
					l-12.72,3.59l0.03,0.05l-21.5,5.87c-2.05,0.56-1.64,3.58,0.48,3.58h17.01h9.47h17.61h4.76c1.4,0,2.28-1.52,1.58-2.73l-5.08-8.8
					l-6.66-11.53l-3.06-5.3c-0.7-1.2-0.7-2.69,0-3.89l3.06-5.3l17.5-30.32c1.17-2.03,3.34-3.28,5.68-3.28h65.74
					C302.13,168.22,303.03,166.72,302.34,165.52z"/>
				<g>
					<path class="st2" d="M304.36,190.63c-1.03-0.09-1.14-1.54-0.14-1.8l23.25-5.82c1.84-0.46,1.51-3.17-0.39-3.17h-37.45
						c-2.02,0-3.27,2.18-2.27,3.93l13.85,23.99c0.47,0.81,0.47,1.81,0,2.62l-18.64,32.29l-2.67,4.63c-0.93,1.62-2.66,2.61-4.53,2.61
						h-5.35h-38.8h-20.98c-2.02,0-3.27,2.18-2.27,3.93l7.86,13.61c1.63,2.82,4.64,4.56,7.9,4.56h20.25h21.64h2.69
						c14.13,0,27.18-7.54,34.24-19.77l1.35-2.33l12.17-21.07c6.3-10.91,6.98-24.09,2.03-35.49c-0.42-0.96-1.32-1.63-2.37-1.72
						L304.36,190.63z"/>
				</g>
			</g>
			<text transform="matrix(1 0 0 1 174.7723 328.0641)" class="st2 st3 st4 st5">SARIE</text>
		</g>
	</g>
</g>
<g id="DESIGNED_BY_FREEPIK">
</g>
</svg>
